<mxfile host="Electron" modified="2024-04-20T19:43:29.851Z" agent="Mozilla/5.0 (Windows NT 10.0; Win64; x64) AppleWebKit/537.36 (KHTML, like Gecko) draw.io/24.2.5 Chrome/120.0.6099.109 Electron/28.1.0 Safari/537.36" etag="yJSfTURMtQfhIO0dqo6-" version="24.2.5" type="device">
  <diagram name="Página-1" id="M9dg9z1FG8U60SrRz17W">
    <mxGraphModel dx="1420" dy="830" grid="1" gridSize="10" guides="1" tooltips="1" connect="1" arrows="1" fold="1" page="1" pageScale="1" pageWidth="827" pageHeight="1169" background="#CCE5FF" math="0" shadow="0">
      <root>
        <mxCell id="0" />
        <mxCell id="1" parent="0" />
        <mxCell id="PYqq_7whYi7VGCNekEJ5-1" value="&lt;font style=&quot;font-size: 17px;&quot; color=&quot;#000000&quot; face=&quot;Comic Sans MS&quot;&gt;&lt;b&gt;2_ Hacer un programa para mostrar por pantalla los números del 1 al 20 salteando de a 3 elementos. Es decir: 1, 4, 7, 10, 13, 16, 19. Importante: El programa no tiene ningún ingreso de datos.&lt;/b&gt;&lt;/font&gt;" style="text;whiteSpace=wrap;html=1;fontFamily=Architects Daughter;fontSource=https%3A%2F%2Ffonts.googleapis.com%2Fcss%3Ffamily%3DArchitects%2BDaughter;" vertex="1" parent="1">
          <mxGeometry x="50" y="10" width="700" height="80" as="geometry" />
        </mxCell>
        <mxCell id="PYqq_7whYi7VGCNekEJ5-31" value="" style="group;aspect=fixed;" vertex="1" connectable="0" parent="1">
          <mxGeometry x="232.5" y="150" width="285" height="550" as="geometry" />
        </mxCell>
        <mxCell id="PYqq_7whYi7VGCNekEJ5-11" value="" style="group;aspect=fixed;strokeWidth=2;strokeColor=#080808;fillColor=none;container=0;" vertex="1" connectable="0" parent="PYqq_7whYi7VGCNekEJ5-31">
          <mxGeometry y="180" width="285" height="285" as="geometry" />
        </mxCell>
        <mxCell id="PYqq_7whYi7VGCNekEJ5-26" value="" style="line;strokeWidth=2;direction=south;html=1;hachureGap=4;fontFamily=Architects Daughter;fontSource=https://fonts.googleapis.com/css?family=Architects+Daughter;strokeColor=#000000;container=0;" vertex="1" parent="PYqq_7whYi7VGCNekEJ5-31">
          <mxGeometry x="137.5" y="465" width="10" height="35" as="geometry" />
        </mxCell>
        <mxCell id="PYqq_7whYi7VGCNekEJ5-27" value="" style="line;strokeWidth=2;direction=south;html=1;hachureGap=4;fontFamily=Architects Daughter;fontSource=https://fonts.googleapis.com/css?family=Architects+Daughter;strokeColor=#000000;container=0;" vertex="1" parent="PYqq_7whYi7VGCNekEJ5-31">
          <mxGeometry x="137.5" y="130" width="10" height="50" as="geometry" />
        </mxCell>
        <mxCell id="PYqq_7whYi7VGCNekEJ5-28" value="" style="line;strokeWidth=2;direction=south;html=1;hachureGap=4;fontFamily=Architects Daughter;fontSource=https://fonts.googleapis.com/css?family=Architects+Daughter;strokeColor=#000000;container=0;" vertex="1" parent="PYqq_7whYi7VGCNekEJ5-31">
          <mxGeometry x="137.5" y="50" width="10" height="40" as="geometry" />
        </mxCell>
        <mxCell id="PYqq_7whYi7VGCNekEJ5-3" value="" style="strokeWidth=2;html=1;shape=mxgraph.flowchart.start_2;whiteSpace=wrap;rounded=0;labelBackgroundColor=none;strokeColor=#000000;align=center;verticalAlign=middle;fontFamily=Helvetica;fontSize=12;fontColor=default;fillColor=#d5e8d4;container=0;" vertex="1" parent="PYqq_7whYi7VGCNekEJ5-31">
          <mxGeometry x="117.5" y="500" width="50" height="50" as="geometry" />
        </mxCell>
        <mxCell id="PYqq_7whYi7VGCNekEJ5-5" value="&lt;font color=&quot;#000000&quot; size=&quot;1&quot; face=&quot;Comic Sans MS&quot;&gt;&lt;b style=&quot;font-size: 21px;&quot;&gt;F&lt;/b&gt;&lt;/font&gt;" style="text;strokeColor=none;align=center;fillColor=none;html=1;verticalAlign=middle;whiteSpace=wrap;rounded=0;fontFamily=Architects Daughter;fontSource=https://fonts.googleapis.com/css?family=Architects+Daughter;container=0;" vertex="1" parent="PYqq_7whYi7VGCNekEJ5-31">
          <mxGeometry x="127.5" y="510" width="30" height="30" as="geometry" />
        </mxCell>
        <mxCell id="PYqq_7whYi7VGCNekEJ5-2" value="" style="strokeWidth=2;html=1;shape=mxgraph.flowchart.start_2;whiteSpace=wrap;rounded=0;labelBackgroundColor=none;strokeColor=#000000;align=center;verticalAlign=middle;fontFamily=Helvetica;fontSize=12;fontColor=default;fillColor=#d5e8d4;container=0;" vertex="1" parent="PYqq_7whYi7VGCNekEJ5-31">
          <mxGeometry x="117.5" width="50" height="50" as="geometry" />
        </mxCell>
        <mxCell id="PYqq_7whYi7VGCNekEJ5-4" value="&lt;font color=&quot;#000000&quot; size=&quot;1&quot; face=&quot;Comic Sans MS&quot;&gt;&lt;b style=&quot;font-size: 21px;&quot;&gt;I&lt;/b&gt;&lt;/font&gt;" style="text;strokeColor=none;align=center;fillColor=none;html=1;verticalAlign=middle;whiteSpace=wrap;rounded=0;fontFamily=Architects Daughter;fontSource=https%3A%2F%2Ffonts.googleapis.com%2Fcss%3Ffamily%3DArchitects%2BDaughter;container=0;" vertex="1" parent="PYqq_7whYi7VGCNekEJ5-31">
          <mxGeometry x="112.5" y="10" width="60" height="30" as="geometry" />
        </mxCell>
        <mxCell id="PYqq_7whYi7VGCNekEJ5-8" value="" style="rounded=0;whiteSpace=wrap;html=1;labelBackgroundColor=none;strokeColor=#0f100e;strokeWidth=2;align=center;verticalAlign=middle;fontFamily=Helvetica;fontSize=12;fontColor=default;fillColor=#d5e8d4;container=0;" vertex="1" parent="PYqq_7whYi7VGCNekEJ5-31">
          <mxGeometry x="77.5" y="90" width="130" height="40" as="geometry" />
        </mxCell>
        <mxCell id="PYqq_7whYi7VGCNekEJ5-9" value="&lt;b&gt;&lt;font color=&quot;#000000&quot; style=&quot;font-size: 16px;&quot; face=&quot;Comic Sans MS&quot;&gt;int num = 1&lt;/font&gt;&lt;/b&gt;" style="text;strokeColor=none;align=center;fillColor=none;html=1;verticalAlign=middle;whiteSpace=wrap;rounded=0;fontFamily=Architects Daughter;fontSource=https%3A%2F%2Ffonts.googleapis.com%2Fcss%3Ffamily%3DArchitects%2BDaughter;container=0;" vertex="1" parent="PYqq_7whYi7VGCNekEJ5-31">
          <mxGeometry x="92.5" y="95" width="100" height="30" as="geometry" />
        </mxCell>
        <mxCell id="PYqq_7whYi7VGCNekEJ5-12" value="" style="whiteSpace=wrap;html=1;aspect=fixed;rounded=0;labelBackgroundColor=none;strokeColor=#1A1A1A;strokeWidth=3;align=center;verticalAlign=middle;fontFamily=Helvetica;fontSize=12;fontColor=default;fillColor=#d5e8d4;container=0;" vertex="1" parent="PYqq_7whYi7VGCNekEJ5-31">
          <mxGeometry y="180" width="285" height="285" as="geometry" />
        </mxCell>
        <mxCell id="PYqq_7whYi7VGCNekEJ5-13" value="" style="edgeStyle=none;orthogonalLoop=1;jettySize=auto;html=1;rounded=0;strokeColor=#000000;fontFamily=Helvetica;fontSize=12;fontColor=default;fillColor=#B2C9AB;startArrow=none;startFill=0;endArrow=none;endFill=0;endSize=7;strokeWidth=2;" edge="1" parent="PYqq_7whYi7VGCNekEJ5-31">
          <mxGeometry width="80" relative="1" as="geometry">
            <mxPoint x="285" y="225.9677419354839" as="sourcePoint" />
            <mxPoint y="225.9677419354839" as="targetPoint" />
            <Array as="points" />
          </mxGeometry>
        </mxCell>
        <mxCell id="PYqq_7whYi7VGCNekEJ5-15" value="&lt;b&gt;&lt;font color=&quot;#000000&quot; style=&quot;font-size: 17px;&quot; face=&quot;Comic Sans MS&quot;&gt;num &amp;lt;= 20&lt;/font&gt;&lt;/b&gt;" style="text;strokeColor=none;align=center;fillColor=none;html=1;verticalAlign=middle;whiteSpace=wrap;rounded=0;fontFamily=Architects Daughter;fontSource=https%3A%2F%2Ffonts.googleapis.com%2Fcss%3Ffamily%3DArchitects%2BDaughter;container=0;" vertex="1" parent="PYqq_7whYi7VGCNekEJ5-31">
          <mxGeometry x="87.5" y="190" width="110" height="30" as="geometry" />
        </mxCell>
        <mxCell id="PYqq_7whYi7VGCNekEJ5-17" value="" style="shape=trapezoid;perimeter=trapezoidPerimeter;whiteSpace=wrap;html=1;fixedSize=1;rounded=0;labelBackgroundColor=none;strokeColor=#0F140C;strokeWidth=2;align=center;verticalAlign=middle;fontFamily=Helvetica;fontSize=12;fontColor=default;fillColor=#d5e8d4;container=0;" vertex="1" parent="PYqq_7whYi7VGCNekEJ5-31">
          <mxGeometry x="82.5" y="260" width="120" height="40" as="geometry" />
        </mxCell>
        <mxCell id="PYqq_7whYi7VGCNekEJ5-18" value="&lt;b&gt;&lt;font color=&quot;#000000&quot; style=&quot;font-size: 18px;&quot; face=&quot;Comic Sans MS&quot;&gt;num&lt;/font&gt;&lt;/b&gt;" style="text;strokeColor=none;align=center;fillColor=none;html=1;verticalAlign=middle;whiteSpace=wrap;rounded=0;fontFamily=Architects Daughter;fontSource=https://fonts.googleapis.com/css?family=Architects+Daughter;container=0;" vertex="1" parent="PYqq_7whYi7VGCNekEJ5-31">
          <mxGeometry x="106.5" y="268" width="70" height="20" as="geometry" />
        </mxCell>
        <mxCell id="PYqq_7whYi7VGCNekEJ5-21" value="" style="rounded=0;whiteSpace=wrap;html=1;labelBackgroundColor=none;strokeColor=#0f100e;strokeWidth=2;align=center;verticalAlign=middle;fontFamily=Helvetica;fontSize=12;fontColor=default;fillColor=#d5e8d4;container=0;" vertex="1" parent="PYqq_7whYi7VGCNekEJ5-31">
          <mxGeometry x="67.5" y="350" width="150" height="40" as="geometry" />
        </mxCell>
        <mxCell id="PYqq_7whYi7VGCNekEJ5-22" value="&lt;b&gt;&lt;font color=&quot;#000000&quot; style=&quot;font-size: 18px;&quot; face=&quot;Comic Sans MS&quot;&gt;num = num + 3&lt;/font&gt;&lt;/b&gt;" style="text;strokeColor=none;align=center;fillColor=none;html=1;verticalAlign=middle;whiteSpace=wrap;rounded=0;fontFamily=Architects Daughter;fontSource=https://fonts.googleapis.com/css?family=Architects+Daughter;container=0;" vertex="1" parent="PYqq_7whYi7VGCNekEJ5-31">
          <mxGeometry x="77.5" y="360" width="132.5" height="20" as="geometry" />
        </mxCell>
        <mxCell id="PYqq_7whYi7VGCNekEJ5-30" value="" style="line;strokeWidth=2;direction=south;html=1;hachureGap=4;fontFamily=Architects Daughter;fontSource=https://fonts.googleapis.com/css?family=Architects+Daughter;strokeColor=#000000;container=0;" vertex="1" parent="PYqq_7whYi7VGCNekEJ5-31">
          <mxGeometry x="138.75" y="300" width="10" height="50" as="geometry" />
        </mxCell>
      </root>
    </mxGraphModel>
  </diagram>
</mxfile>
